HIERARCHY
ROOT pelvis
{
  OFFSET 0 100 0
  CHANNELS 6 Xposition Yposition Zposition Zrotation Xrotation Yrotation
  JOINT pelvis_right_femur
  {
    OFFSET -10.78128 -3.44521 -0.5502486
    CHANNELS 3 Zrotation Xrotation Yrotation
    JOINT right_femur_tibia
    {
      OFFSET -0.8047443 -44.0398 -0.1307829
      CHANNELS 3 Zrotation Xrotation Yrotation
      JOINT right_tibia_foot
      {
        OFFSET 3.006224 -47.83518 -5
        CHANNELS 3 Zrotation Xrotation Yrotation
        End Site
        {
          OFFSET 0 -5 15
        }
      }
    }
  }
  JOINT pelvis_left_femur
  {
    OFFSET 10.78128 -3.44521 -0.5502486
    CHANNELS 3 Zrotation Xrotation Yrotation
    JOINT left_femur_tibia
    {
      OFFSET 0.8047443 -44.0398 -0.1307829
      CHANNELS 3 Zrotation Xrotation Yrotation
      JOINT left_tibia_foot
      {
        OFFSET -4.370144 -48.10324 -4.275266
        CHANNELS 3 Zrotation Xrotation Yrotation
        End Site
        {
          OFFSET 0 -5 15
        }
      }
    }
  }
  JOINT pelvis_spine1
  {
    OFFSET 0 6.468898 -3.129235
    CHANNELS 3 Zrotation Xrotation Yrotation
    JOINT spine1
    {
      OFFSET 0 23.15396 4.99043
      CHANNELS 3 Zrotation Xrotation Yrotation
      JOINT spine2
      {
        OFFSET 0 20.79997 -5.064912
        CHANNELS 3 Zrotation Xrotation Yrotation
        JOINT neck
        {
          OFFSET 0 14.38658 9.616178
          CHANNELS 3 Zrotation Xrotation Yrotation
          End Site
          {
            OFFSET 0 20 0
          }
        }
      }
      JOINT right_manubrium
      {
        OFFSET -5.722621 16.35077 3.967754
        CHANNELS 3 Zrotation Xrotation Yrotation
        JOINT right_clavicle
        {
          OFFSET -13.16364 1.694482 -4.693211
          CHANNELS 3 Zrotation Xrotation Yrotation
          JOINT right_humerus
          {
            OFFSET -28.5034 -0.3100689 -2.792744
            CHANNELS 3 Zrotation Xrotation Yrotation
            JOINT right_radius
            {
              OFFSET -25.15693 0.02248979 -1.271978
              CHANNELS 3 Zrotation Xrotation Yrotation
              End Site
              {
                OFFSET -15 0 0
              }
            }
          }
        }
      }
      JOINT left_manubrium
      {
        OFFSET 5.722621 16.35077 3.967754
        CHANNELS 3 Zrotation Xrotation Yrotation
        JOINT left_clavicle
        {
          OFFSET 13.16364 1.694482 -4.693211
          CHANNELS 3 Zrotation Xrotation Yrotation
          JOINT left_humerus
          {
            OFFSET 29.39168 -1.063119 -2.237045
            CHANNELS 3 Zrotation Xrotation Yrotation
            JOINT left_radius
            {
              OFFSET 24.59957 -0.9528479 0.9047498
              CHANNELS 3 Zrotation Xrotation Yrotation
              End Site
              {
                OFFSET 15 -0 -0
              }
            }
          }
        }
      }
    }
  }
}
MOTION
Frames: 11
Frame Time: 0.0416666666667
-515.8973 124.2608 415.5159 -0.5161487 7.553772 -166.9297 5.638681 14.33264 -3.594539 -0 12.02126 -0 -14.47895 -12.08538 1.627922 4.322274 -17.7166 -4.603731 -0 9.641096 -0 -0.1572552 -0.1112536 17.46052 0.8863795 -3.686362 6.315331 -0.04413218 15.09143 -5.177145 -0.3735307 20.13744 5.391576 6.348354 -15.08883 1.846935 4.48229 -26.57515 12.74385 79.93725 24.14629 -6.845867 -0 0 27.989 -24.79155 14.4977 13.20132 6.273385 -24.07288 -7.775189 -98.11991 6.461573 33.60333 -0 0 4.500967 12.99765 16.2352 -5.088808
-518.2087 124.2174 410.3643 -0.3623458 7.562705 -168.1001 5.638324 14.33252 -3.595859 -0 12.02096 -0 -14.4801 -12.08469 1.628714 4.321857 -17.71653 -4.604995 -0 9.642681 -0 -0.1586923 -0.1115466 17.46112 0.8862666 -3.685908 6.314985 -0.04453261 15.0908 -5.176602 -0.3735075 20.13804 5.392344 6.349862 -15.08787 1.846682 4.483402 -26.57349 12.74357 79.93539 24.14822 -6.844876 -0 0 27.98833 -24.79248 14.49715 13.20066 6.274536 -24.07275 -7.775083 -98.12072 6.460861 33.60185 -0 0 4.504693 12.99957 16.23642 -5.091844
-520.4153 124.174 405.1669 -0.2084067 7.568662 -169.2707 5.637978 14.33233 -3.597151 -0 12.02076 -0 -14.48125 -12.08379 1.629476 4.321435 -17.71628 -4.606246 -0 9.644747 -0 -0.1601765 -0.1118111 17.46169 0.8862 -3.685511 6.314687 -0.04497556 15.0903 -5.176075 -0.3734446 20.13859 5.393069 6.351409 -15.08686 1.846384 4.484473 -26.57189 12.74329 79.93366 24.14981 -6.84406 -0 0 27.9878 -24.79352 14.49671 13.19992 6.275715 -24.07275 -7.775083 -98.12157 6.46001 33.60044 -0 0 4.508475 13.00155 16.23771 -5.094945
-522.5161 124.1307 399.926 -0.0543833 7.571636 -170.4415 5.637648 14.33208 -3.598399 -0 12.02066 -0 -14.48237 -12.08269 1.630199 4.321015 -17.71586 -4.607466 -0 9.647252 -0 -0.1616868 -0.1120442 17.46221 0.8861795 -3.685176 6.31444 -0.04545392 15.08992 -5.175573 -0.3733438 20.13908 5.393743 6.352973 -15.0858 1.846047 4.485489 -26.57036 12.74303 79.93207 24.15105 -6.843423 -0 0 27.98741 -24.79464 14.49639 13.19911 6.276908 -24.07285 -7.775185 -98.12244 6.459036 33.59909 -0 0 4.512261 13.00354 16.23904 -5.098065
-524.5103 124.0875 394.6437 0.09967177 7.571619 -171.6125 5.637338 14.33176 -3.599587 -0 12.02067 -0 -14.48346 -12.08141 1.630874 4.320602 -17.71528 -4.608639 -0 9.650151 -0 -0.1632019 -0.1122435 17.46269 0.8862042 -3.684905 6.314246 -0.04596032 15.08968 -5.175101 -0.3732074 20.1395 5.394358 6.354533 -15.08471 1.845675 4.486439 -26.56892 12.74279 79.93066 24.15193 -6.842971 -0 0 27.98716 -24.79583 14.49617 13.19823 6.278096 -24.07307 -7.775385 -98.12333 6.457955 33.59784 -0 0 4.516 13.00552 16.24039 -5.101163
-526.3971 124.0445 389.3222 0.2537052 7.568602 -172.7836 5.637052 14.33139 -3.600702 -0 12.02077 -0 -14.48449 -12.07997 1.631493 4.320201 -17.71455 -4.609752 -0 9.653394 -0 -0.1647012 -0.1124073 17.46311 0.8862725 -3.684701 6.314106 -0.04648715 15.08957 -5.174665 -0.3730383 20.13986 5.394907 6.356068 -15.08361 1.845275 4.487311 -26.5676 12.74256 79.92943 24.15244 -6.842704 -0 0 27.98705 -24.79707 14.49607 13.19731 6.279265 -24.07339 -7.77568 -98.12422 6.456784 33.5967 -0 0 4.519641 13.00747 16.24174 -5.104197
-528.1756 124.0016 383.9635 0.4076629 7.562574 -173.9549 5.636792 14.33096 -3.601729 -0 12.02097 -0 -14.48547 -12.0784 1.63205 4.319819 -17.71369 -4.610791 -0 9.65693 -0 -0.1661648 -0.1125342 17.46348 0.8863825 -3.684564 6.314021 -0.04702674 15.08959 -5.17427 -0.3728396 20.14015 5.395384 6.357557 -15.08251 1.844853 4.488095 -26.56639 12.74235 79.9284 24.1526 -6.842623 -0 0 27.98709 -24.79834 14.49609 13.19636 6.280398 -24.07381 -7.776061 -98.1251 6.455542 33.59568 -0 0 4.523139 13.00936 16.24308 -5.107127
-529.8451 123.9588 378.57 0.5614894 7.553525 -175.1264 5.636562 14.3305 -3.602656 -0 12.02126 -0 -14.48636 -12.07673 1.632538 4.319458 -17.7127 -4.611742 -0 9.660702 -0 -0.1675738 -0.1126235 17.46379 0.8865315 -3.684495 6.313991 -0.04757143 15.08973 -5.173919 -0.3726148 20.14036 5.395785 6.358982 -15.08143 1.844416 4.488783 -26.56533 12.74217 79.92756 24.15241 -6.842722 -0 0 27.98725 -24.79963 14.49621 13.19539 6.281481 -24.07431 -7.776521 -98.12595 6.454246 33.59478 -0 0 4.526449 13.01116 16.24438 -5.109918
-531.4049 123.9162 373.1438 0.7151283 7.541444 -176.2979 5.636364 14.33 -3.603475 -0 12.02164 -0 -14.48717 -12.07497 1.632952 4.319125 -17.71161 -4.612596 -0 9.664653 -0 -0.1689105 -0.1126748 17.46403 0.8867165 -3.684493 6.314014 -0.04811367 15.09 -5.173618 -0.3723677 20.1405 5.396106 6.360324 -15.08038 1.843968 4.489369 -26.56441 12.74201 79.92694 24.15187 -6.842997 -0 0 27.98755 -24.80091 14.49644 13.19441 6.282501 -24.07489 -7.777053 -98.12677 6.452917 33.59403 -0 0 4.529531 13.01286 16.24564 -5.112534
-532.8544 123.8738 367.6871 0.8685215 7.526322 -177.4696 5.636201 14.32947 -3.604177 -0 12.02208 -0 -14.48788 -12.07316 1.633289 4.318822 -17.71044 -4.613344 -0 9.668725 -0 -0.1701585 -0.1126884 17.46421 0.8869341 -3.684556 6.314089 -0.04864615 15.09038 -5.173368 -0.3721021 20.14057 5.396345 6.361569 -15.07938 1.843518 4.489846 -26.56365 12.74187 79.92654 24.15101 -6.843438 -0 0 27.98798 -24.80218 14.49677 13.19344 6.283446 -24.07555 -7.777647 -98.12755 6.451572 33.59342 -0 0 4.53235 13.01443 16.24683 -5.114944
-534.1929 123.8315 362.2022 1.02161 7.508148 -178.6413 5.636072 14.32892 -3.604754 -0 12.0226 -0 -14.4885 -12.07131 1.633546 4.318553 -17.7092 -4.613978 -0 9.67286 -0 -0.1713032 -0.1126652 17.46432 0.8871805 -3.684682 6.314214 -0.04916187 15.09087 -5.173172 -0.3718223 20.14056 5.396501 6.362701 -15.07843 1.84307 4.490212 -26.56305 12.74177 79.92634 24.14984 -6.844037 -0 0 27.98851 -24.8034 14.49718 13.1925 6.284304 -24.07626 -7.778294 -98.12828 6.450231 33.59297 -0 0 4.534874 13.01586 16.24794 -5.117121
